<svg xmlns="http://www.w3.org/2000/svg" width="30" height="28" viewBox="0 0 30 28" fill="none">
  <path d="M2.78906 16.5148L13.377 27.303C13.8164 27.7506 14.3965 28 15 28C15.6035 28 16.1836 27.7506 16.623 27.303L27.2109 16.5148C28.9922 14.705 30 12.1662 30 9.51235V9.14145C30 4.67142 27.041 0.860056 23.0039 0.124643C20.332 -0.361369 17.6133 0.591471 15.7031 2.67621L15 3.44359L14.2969 2.67621C12.3867 0.591471 9.66797 -0.361369 6.99609 0.124643C2.95898 0.860056 0 4.67142 0 9.14145V9.51235C0 12.1662 1.00781 14.705 2.78906 16.5148Z" fill="#FF0000"/>
</svg>